<?xml version="1.0" encoding="UTF-8"?>
<svg version="1.1" viewBox="0 0 16 16" xmlns="http://www.w3.org/2000/svg">
   <defs>
      <filter id="a" x="-.055336" y="-.041752" width="1.1107" height="1.0835"
         color-interpolation-filters="sRGB">
         <feGaussianBlur stdDeviation="0.23010017" />
      </filter>
   </defs>
   <circle cx="8" cy="8" r="8" fill="#050505" />
   <g transform="matrix(.90183 0 0 .75605 1.3636 1.3333)" fill="#ff661a" filter="url(#a)"
      stroke-width=".39792" aria-label="C">
      <path
         d="m10.76 12.089q0.27058 0.0955 0.382 0.23875 0.11142 0.12733 0.11142 0.35016-0.87541 1.3529-2.0214 2.0532-1.146 0.70033-2.483 0.70033-1.5121 0-2.6262-0.70033-1.0982-0.71625-1.7031-2.0055-0.60483-1.3052-0.60483-3.0719 0-1.6394 0.4775-2.9923 0.4775-1.3688 1.3529-2.3557 0.89133-1.0027 2.0851-1.5439 1.2097-0.55708 2.6422-0.55708 1.6076 0 2.5148 0.79583 0.90725 0.77991 0.90725 2.1487 0 0.79583-0.31833 1.4166-0.30242 0.62075-0.8595 0.98683-0.54116 0.35017-1.2415 0.35017-0.191 0-0.41383-0.031833-0.22283-0.031833-0.4775-0.0955 0.191-0.30242 0.35017-0.79583 0.15917-0.49341 0.25467-1.0346 0.0955-0.54116 0.0955-0.97091 0-0.68441-0.27058-1.0187-0.25467-0.35016-0.764-0.35016-0.63666 0-1.2097 0.49341-0.573 0.4775-1.0187 1.3211-0.42975 0.84358-0.68441 1.9418-0.23875 1.0982-0.23875 2.3397 0 1.2415 0.2865 2.101 0.30242 0.8595 0.87541 1.3052 0.573 0.44566 1.3847 0.44566 0.8595 0 1.7349-0.39792 0.89133-0.39792 1.4802-1.0664z"
         style="font-variation-settings:'wght' 900" />
   </g>
   <g transform="matrix(.9089 0 0 .75605 1.3508 1.3332)" fill="#ff661a" stroke-width=".39792"
      aria-label="C">
      <path
         d="m10.76 12.089q0.27058 0.0955 0.382 0.23875 0.11142 0.12733 0.11142 0.35016-0.87541 1.3529-2.0214 2.0532-1.146 0.70033-2.483 0.70033-1.5121 0-2.6262-0.70033-1.0982-0.71625-1.7031-2.0055-0.60483-1.3052-0.60483-3.0719 0-1.6394 0.4775-2.9923 0.4775-1.3688 1.3529-2.3557 0.89133-1.0027 2.0851-1.5439 1.2097-0.55708 2.6422-0.55708 1.6076 0 2.5148 0.79583 0.90725 0.77991 0.90725 2.1487 0 0.79583-0.31833 1.4166-0.30242 0.62075-0.8595 0.98683-0.54116 0.35017-1.2415 0.35017-0.191 0-0.41383-0.031833t-0.4775-0.0955q0.191-0.30242 0.35017-0.79583t0.25467-1.0346q0.0955-0.54116 0.0955-0.97091 0-0.68441-0.27058-1.0187-0.25467-0.35017-0.764-0.35017-0.63666 0-1.2097 0.49341-0.573 0.4775-1.0187 1.3211-0.42975 0.84358-0.68441 1.9418-0.23875 1.0982-0.23875 2.3397 0 1.2415 0.2865 2.101 0.30242 0.8595 0.87541 1.3052 0.573 0.44566 1.3847 0.44566 0.8595 0 1.7349-0.39792 0.89133-0.39792 1.4802-1.0664z"
         style="font-variation-settings:'wght' 900" />
   </g>
</svg>